<?xml version="1.0" encoding="UTF-8"?>
<svg width="24px" height="24px" viewBox="0 0 24 24" version="1.1" xmlns="http://www.w3.org/2000/svg" xmlns:xlink="http://www.w3.org/1999/xlink">
    <title>图标/一级tab/积分_normal </title>
    <g id="图标/一级tab/积分_normal-" stroke="none" stroke-width="1" fill="none" fill-rule="evenodd">
        <circle id="Oval" stroke="#B3B3B3" stroke-width="1.5" cx="12" cy="12" r="10.25"></circle>
        <path d="M11.9197133,7.24731721 C12.1599446,7.28422309 12.1998515,7.32412997 12.224184,7.37343313 L12.224184,7.37343313 L13.56952,10.0993815 L16.5307184,10.3851393 C16.5994348,10.3917704 16.658958,10.4256267 16.6996443,10.4750042 C16.7403306,10.5243817 16.76218,10.5892805 16.7555488,10.6579969 C16.7501472,10.7139723 16.726031,10.7664916 16.6870967,10.8070693 L16.6870967,10.8070693 L14.5255203,13.0598854 L15.0327678,16.0173653 C15.0444379,16.0854073 15.0274238,16.1517381 14.9904815,16.2039759 C14.9535393,16.2562137 14.8966691,16.2943585 14.828627,16.3060286 C14.7744376,16.3153228 14.7186956,16.3064941 14.6700305,16.2809094 L14.6700305,16.2809094 L12,14.8771913 L9.32996954,16.2809094 C9.26886397,16.3130345 9.20052198,16.3173504 9.13942512,16.2983586 C9.07832825,16.2793668 9.02447651,16.2370674 8.9923514,16.1759618 C8.96676664,16.1272967 8.95793797,16.0715547 8.96723218,16.0173653 L8.96723218,16.0173653 L9.47716262,13.0442426 L7.3170626,10.9386655 C7.26762716,10.8904779 7.24240366,10.8268145 7.24158595,10.7628391 C7.24076823,10.6988638 7.26435629,10.6345765 7.31254394,10.585141 C7.35092109,10.5457701 7.40120669,10.5201483 7.45561595,10.5122422 L7.45561595,10.5122422 L10.4408008,10.0784694 L11.775816,7.37343313 C11.8063688,7.31152642 11.8591218,7.26786438 11.9197133,7.24731721 Z" id="Star" stroke="#B3B3B3" stroke-width="1.5"></path>
    </g>
</svg>