<?xml version="1.0" encoding="UTF-8"?>
<svg width="24px" height="24px" viewBox="0 0 24 24" version="1.1" xmlns="http://www.w3.org/2000/svg" xmlns:xlink="http://www.w3.org/1999/xlink">
    <title>图标/一级tab/积分_normal 备份</title>
    <g id="图标/一级tab/积分_normal-备份" stroke="none" stroke-width="1" fill="none" fill-rule="evenodd">
        <circle id="Oval" stroke="#33301F" stroke-width="1.5" fill="#FFE357" cx="12" cy="12" r="10.25"></circle>
        <path d="M11.9197133,7.2752169 C12.1599446,7.31212278 12.1998515,7.35202966 12.224184,7.40133281 L12.224184,7.40133281 L13.5591992,10.1063691 L16.5443841,10.5401419 C16.6127022,10.5500691 16.6705288,10.5867478 16.7087941,10.6380244 C16.7470594,10.6893009 16.7657634,10.7551751 16.7558362,10.8234932 C16.7479301,10.8779025 16.7223083,10.9281881 16.6829374,10.9665652 L16.6829374,10.9665652 L14.5228374,13.0721423 L15.0327678,16.0452649 C15.0444379,16.113307 15.0274238,16.1796378 14.9904815,16.2318756 C14.9535393,16.2841134 14.8966691,16.3222582 14.828627,16.3339283 C14.7744376,16.3432225 14.7186956,16.3343938 14.6700305,16.3088091 L14.6700305,16.3088091 L12,14.905091 L9.32996954,16.3088091 C9.26886397,16.3409342 9.20052198,16.3452501 9.13942512,16.3262583 C9.07832825,16.3072665 9.02447651,16.2649671 8.9923514,16.2038615 C8.96676664,16.1551964 8.95793797,16.0994543 8.96723218,16.0452649 L8.96723218,16.0452649 L9.47716262,13.0721423 L7.3170626,10.9665652 C7.26762716,10.9183776 7.24240366,10.8547142 7.24158595,10.7907388 C7.24076823,10.7267634 7.26435629,10.6624761 7.31254394,10.6130407 C7.35092109,10.5736698 7.40120669,10.548048 7.45561595,10.5401419 L7.45561595,10.5401419 L10.4408008,10.1063691 L11.775816,7.40133281 C11.8063688,7.3394261 11.8591218,7.29576406 11.9197133,7.2752169 Z" id="Star" stroke="#33301F" stroke-width="1.5" fill="#FFFFFF"></path>
    </g>
</svg>